<?xml version="1.0" standalone="no"?>
<!DOCTYPE svg PUBLIC "-//W3C//DTD SVG 20010904//EN"
 "http://www.w3.org/TR/2001/REC-SVG-20010904/DTD/svg10.dtd">
<svg version="1.0" xmlns="http://www.w3.org/2000/svg"
 width="600.000000pt" height="600.000000pt" viewBox="0 0 600.000000 600.000000"
 preserveAspectRatio="xMidYMid meet">

<g transform="translate(0.000000,600.000000) scale(0.100000,-0.100000)"
fill="#000000" stroke="none">
<path d="M932 3921 c-65 -23 -116 -70 -139 -130 -17 -42 -18 -104 -18 -796 l0
-750 23 -47 c13 -27 37 -57 54 -69 71 -51 -24 -49 2133 -49 2250 0 2077 -6
2161 72 76 70 74 44 74 863 0 788 0 793 -57 847 -16 14 -48 37 -73 50 l-45 23
-2030 2 c-1950 2 -2032 2 -2083 -16z m2554 -72 c834 -1 1493 -5 1520 -10 27
-5 51 -14 52 -19 2 -6 10 -10 17 -10 8 0 23 -13 35 -29 21 -30 21 -32 18 -764
l-3 -734 -28 -36 c-16 -21 -40 -45 -55 -55 -24 -16 -152 -17 -2058 -20 l-2032
-2 -31 26 c-61 51 -58 16 -64 799 -5 680 -5 723 12 760 21 46 53 78 96 94 21
8 175 10 540 6 281 -3 1172 -6 1981 -6z"/>
<path d="M965 3790 c-62 -31 -60 -13 -57 -796 l3 -711 29 -33 c28 -32 32 -33
107 -34 43 -1 949 0 2015 2 l1936 2 41 38 41 38 0 721 c0 795 5 736 -63 767
-28 13 -291 15 -2027 18 -1757 3 -1999 1 -2025 -12z m1699 -126 c9 -3 16 -12
16 -20 0 -8 5 -14 10 -14 6 0 10 -5 10 -11 0 -5 18 -37 40 -69 22 -32 40 -63
40 -67 0 -5 9 -15 20 -23 11 -8 20 -19 20 -25 0 -5 14 -26 30 -45 16 -19 30
-40 30 -47 0 -6 4 -13 8 -15 4 -1 54 -71 110 -154 95 -140 120 -190 90 -179
-18 7 -30 -4 -68 -60 -19 -27 -36 -52 -39 -55 -3 -3 -12 -16 -19 -30 -11 -21
-70 -105 -109 -155 -25 -32 -73 -104 -73 -110 0 -3 -11 -17 -25 -31 -14 -14
-22 -31 -19 -37 4 -7 4 -9 0 -6 -3 3 -22 -9 -42 -27 -31 -30 -42 -34 -90 -34
-34 0 -53 -4 -49 -10 4 -6 -6 -10 -22 -9 -25 0 -26 1 -8 9 19 8 19 9 1 9 -10
1 -27 -9 -38 -21 -19 -22 -24 -23 -196 -21 -353 3 -349 4 -395 -23 -47 -27
-57 -29 -57 -12 0 15 83 138 93 138 4 0 7 8 7 18 0 10 9 24 20 32 11 8 20 18
20 23 0 11 62 101 73 105 4 2 7 10 7 17 0 7 4 15 8 17 9 3 161 227 181 265 14
27 14 29 -1 45 -7 8 -17 21 -23 30 -22 36 -149 223 -154 228 -3 3 -12 17 -20
33 -8 15 -18 27 -23 27 -4 0 -8 7 -8 15 0 8 -4 15 -10 15 -5 0 -10 7 -10 15 0
8 -4 15 -9 15 -5 0 -14 14 -21 30 -7 17 -16 30 -21 30 -4 0 -11 9 -14 20 -3
11 -12 26 -18 32 -29 30 -87 119 -87 133 0 13 52 15 409 15 225 0 416 -3 425
-6z m1116 -84 c33 -50 60 -93 60 -96 0 -3 5 -10 10 -17 6 -7 33 -43 61 -82 27
-38 55 -77 62 -85 7 -8 18 -28 26 -43 8 -15 18 -27 23 -27 4 0 8 -7 8 -15 0
-8 5 -15 10 -15 6 0 10 -6 10 -13 0 -7 8 -22 18 -33 21 -22 102 -140 102 -148
0 -4 -11 -6 -24 -6 -19 0 -34 -13 -61 -55 -21 -31 -33 -60 -29 -66 4 -7 3 -9
-3 -6 -11 7 -123 -142 -123 -162 0 -7 -4 -9 -10 -6 -5 3 -10 -1 -10 -9 0 -9
-4 -16 -10 -16 -5 0 -10 -6 -10 -13 0 -7 -9 -19 -20 -27 -11 -8 -20 -20 -20
-27 0 -7 -16 -29 -36 -50 -36 -36 -38 -37 -127 -43 -81 -5 -91 -7 -106 -30 -9
-13 -30 -39 -48 -57 l-32 -34 -157 3 c-115 2 -158 6 -162 16 -3 9 28 12 133
12 151 0 150 0 193 73 9 15 20 27 24 27 4 0 8 7 8 15 0 8 5 15 10 15 6 0 10 7
10 15 0 8 4 15 9 15 5 0 13 9 16 20 3 11 12 26 19 32 12 12 110 154 204 294
26 40 41 71 38 82 -5 15 -109 169 -133 197 -5 6 -33 46 -63 90 -29 44 -57 82
-62 83 -4 2 -8 10 -8 18 0 8 -4 14 -10 14 -5 0 -10 5 -10 10 0 6 -9 20 -20 32
-11 12 -20 28 -20 35 0 7 -4 13 -10 13 -5 0 -10 5 -10 11 0 6 -9 24 -21 40
-20 29 -20 29 -129 29 -122 0 -126 -3 -68 -64 15 -16 28 -35 28 -42 0 -7 4
-14 8 -16 5 -1 45 -57 90 -124 44 -66 87 -128 96 -137 9 -8 16 -19 16 -24 1
-4 14 -24 30 -43 17 -19 30 -40 30 -47 0 -7 4 -13 8 -13 5 0 15 -12 23 -27 8
-16 18 -31 24 -35 12 -9 4 -17 -22 -21 -23 -3 -53 -30 -53 -46 0 -6 -4 -11
-10 -11 -5 0 -10 -7 -10 -15 0 -8 -4 -15 -10 -15 -5 0 -10 -7 -10 -15 0 -8 -4
-15 -10 -15 -5 0 -10 -7 -10 -15 0 -8 -4 -15 -10 -15 -5 0 -10 -7 -10 -15 0
-8 -4 -15 -10 -15 -5 0 -10 -6 -10 -14 0 -8 -4 -16 -8 -18 -9 -3 -72 -93 -72
-103 0 -3 -10 -16 -22 -29 -13 -13 -30 -33 -38 -46 -29 -43 -71 -95 -87 -107
-9 -7 -38 -13 -63 -13 -25 0 -51 -5 -57 -11 -7 -7 -17 -8 -25 -3 -18 12 -39
14 -33 4 3 -5 -3 -14 -14 -19 -11 -6 -23 -20 -26 -31 -3 -11 -13 -20 -21 -20
-8 0 -14 -4 -14 -9 0 -10 -80 -44 -87 -37 -3 2 17 35 43 73 26 37 58 84 71
103 12 19 26 40 30 45 5 6 33 46 63 90 30 44 58 82 62 83 4 2 8 9 8 15 0 7 14
28 30 47 16 19 30 41 30 48 0 6 4 12 9 12 5 0 14 14 21 30 7 17 16 30 20 30 4
0 15 16 25 35 16 35 16 36 -12 80 -15 25 -31 45 -35 45 -5 0 -8 7 -8 15 0 8
-4 15 -10 15 -5 0 -10 6 -10 13 0 7 -9 23 -20 35 -11 12 -20 25 -20 30 0 4 -8
17 -18 28 -10 10 -76 105 -147 209 -71 105 -132 191 -136 193 -4 2 -5 10 -2
18 4 12 69 14 419 14 l413 0 61 -90z m1210 -890 c-1 -16 -20 -27 -68 -39 -48
-12 -110 -36 -155 -62 -24 -13 -37 -3 -37 28 0 23 2 24 17 12 12 -10 15 -10 9
-1 -5 9 0 12 21 10 15 -1 38 4 50 10 12 7 32 12 45 12 13 0 36 8 52 18 28 17
66 24 66 12z"/>
<path d="M2256 3478 c43 -62 81 -114 86 -116 4 -2 8 -10 8 -18 0 -8 5 -14 10
-14 6 0 10 -5 10 -10 0 -6 9 -20 20 -32 11 -12 20 -28 20 -35 0 -7 5 -13 10
-13 6 0 10 -7 10 -15 0 -8 5 -15 10 -15 6 0 10 -7 10 -15 0 -8 3 -15 8 -15 4
0 18 -18 32 -40 14 -22 28 -40 32 -40 5 0 8 -6 8 -13 0 -7 9 -23 20 -35 22
-23 26 -47 10 -57 -5 -3 -10 -1 -10 5 0 7 -6 5 -15 -4 -8 -8 -15 -19 -15 -25
0 -6 -4 -11 -8 -11 -4 0 -17 -14 -27 -31 -54 -86 -137 -204 -147 -207 -4 -2
-8 -10 -8 -18 0 -8 -4 -14 -8 -14 -5 0 -15 -12 -23 -27 -8 -16 -22 -35 -32
-45 -10 -9 -19 -26 -20 -37 0 -11 -3 -18 -5 -16 -5 5 -32 -20 -32 -29 0 -7
-27 -41 -57 -73 -13 -13 -23 -26 -23 -28 0 -3 63 -5 140 -5 118 0 140 2 140
15 0 8 5 15 10 15 6 0 10 7 10 15 0 8 4 15 8 15 5 0 15 12 23 28 8 15 19 33
26 40 6 7 53 74 104 150 51 75 96 139 101 140 4 2 8 10 8 18 0 8 4 14 8 14 5
0 15 12 23 28 8 15 16 29 19 32 22 20 51 73 43 79 -5 3 -29 35 -53 71 -24 36
-47 67 -52 68 -4 2 -8 9 -8 15 0 6 -20 36 -43 66 -24 31 -50 67 -57 81 -11 21
-64 94 -80 110 -3 3 -11 15 -17 28 -32 55 -39 67 -55 86 -10 11 -18 26 -18 33
0 10 -27 13 -115 13 l-115 0 76 -112z"/>
</g>
</svg>
